<?xml version="1.0" encoding="UTF-8" standalone="no"?>
<svg
   xmlns:dc="http://purl.org/dc/elements/1.1/"
   xmlns:cc="http://creativecommons.org/ns#"
   xmlns:rdf="http://www.w3.org/1999/02/22-rdf-syntax-ns#"
   xmlns:svg="http://www.w3.org/2000/svg"
   xmlns="http://www.w3.org/2000/svg"
   viewBox="0 0 443.85333 236.368"
   height="236.368"
   width="443.85333"
   xml:space="preserve"
   id="svg2"
   version="1.1"><metadata
     id="metadata8"><rdf:RDF><cc:Work
         rdf:about=""><dc:format>image/svg+xml</dc:format><dc:type
           rdf:resource="http://purl.org/dc/dcmitype/StillImage" /></cc:Work></rdf:RDF></metadata><defs
     id="defs6"><clipPath
       id="clipPath18"
       clipPathUnits="userSpaceOnUse"><path
         id="path16"
         d="M 0,177.276 H 332.89 V 0 H 0 Z" /></clipPath></defs><g
     transform="matrix(1.3333333,0,0,-1.3333333,0,236.368)"
     id="g10"><g
       id="g12"><g
         clip-path="url(#clipPath18)"
         id="g14"><g
           transform="translate(40.2383,25.2414)"
           id="g20"><path
             id="path22"
             style="fill:#0b3385;fill-opacity:1;fill-rule:nonzero;stroke:none"
             d="m 0,0 c -0.442,0.64 -0.539,1.327 -0.539,2.161 v 23.282 c 0,2.702 -0.05,4.764 -0.099,6.484 0.541,0.441 1.964,0.736 4.862,0.736 0.442,-0.835 0.491,-1.62 0.491,-3.29 V 19.254 c 0.835,1.179 1.818,2.555 2.652,3.733 2.259,3.193 4.569,6.581 6.828,9.627 0.589,0.098 0.884,0.098 1.326,0.098 0.345,0 0.688,-0.049 1.033,-0.049 h 0.834 c 1.08,-0.049 1.622,-0.491 1.622,-0.933 0,-0.295 -0.099,-0.54 -0.345,-0.982 -0.296,-0.394 -1.13,-1.621 -0.983,-1.474 -2.504,-3.438 -5.746,-7.81 -8.349,-11.297 2.799,-2.848 5.55,-7.956 7.613,-11.836 1.326,-2.359 2.456,-4.52 3.144,-5.207 0,-0.443 -0.196,-0.639 -0.837,-0.884 -0.392,-0.148 -1.177,-0.295 -2.11,-0.295 H 16.405 C 14.441,0 13.507,1.916 12.77,3.487 11.444,6.386 9.137,10.561 6.729,13.262 5.502,14.638 5.256,15.129 4.715,15.473 V 6.778 c 0,-1.571 0.05,-2.799 0.05,-3.88 V 0.687 C 4.323,0 3.046,-0.098 0.393,-0.098 Z" /></g><g
           transform="translate(66.8071,57.8059)"
           id="g24"><path
             id="path26"
             style="fill:#0b3385;fill-opacity:1;fill-rule:nonzero;stroke:none"
             d="m 0,0 c 0.345,-0.834 0.442,-1.768 0.442,-3.585 v -24.951 c 1.13,-0.099 2.702,-0.148 4.176,-0.148 1.718,0 3.782,0 6.091,0.197 0.097,-1.08 0.097,-1.424 0.097,-1.867 -0.146,-0.834 -0.688,-1.916 -1.914,-2.21 -0.934,-0.049 -2.556,-0.098 -4.914,-0.098 -3.241,0 -6.531,0.147 -8.447,0.295 -0.05,0.442 -0.147,0.982 -0.197,1.424 -0.049,0.393 -0.099,0.836 -0.196,1.228 v 23.674 c 0,2.31 -0.049,3.978 -0.099,5.157 0.638,0.836 1.671,1.031 4.519,1.031 z" /></g><g
           transform="translate(80.4077,26.3225)"
           id="g28"><path
             id="path30"
             style="fill:#0b3385;fill-opacity:1;fill-rule:nonzero;stroke:none"
             d="m 0,0 v 5.845 c 0,2.848 0.05,6.139 0.05,9.43 0,1.965 -0.05,3.93 -0.05,5.796 v 4.519 c 0,2.603 -0.049,4.176 -0.097,4.617 0.49,1.229 1.816,1.424 4.42,1.424 0.834,0 0.933,-1.08 0.933,-3.438 v -6.09 c 0,-2.21 -0.049,-4.519 -0.049,-6.729 0,-2.21 0.049,-4.372 0.049,-6.386 V 4.175 c 0,-1.866 0.048,-3.143 0.048,-3.831 V -0.344 C 4.765,-1.031 3.489,-1.179 0.884,-1.179 0.295,-1.179 0,-0.884 0,0" /></g><g
           transform="translate(104.5728,41.8928)"
           id="g32"><path
             id="path34"
             style="fill:#0b3385;fill-opacity:1;fill-rule:nonzero;stroke:none"
             d="M 0,0 C 1.177,-2.26 2.307,-4.617 3.29,-6.729 3.193,-4.52 3.144,-1.474 3.144,0.785 v 11.838 c 0,1.179 0.146,1.964 0.491,2.701 1.128,0.737 1.473,0.737 4.616,0.737 C 8.202,13.163 8.152,9.578 8.152,5.746 v -21.66 c -0.196,-0.148 -1.472,-0.982 -2.602,-0.982 -0.442,0 -1.622,0.048 -2.357,0.343 -1.278,2.407 -2.8,5.01 -4.372,7.712 v -0.05 c -0.835,1.474 -1.718,3.045 -2.603,4.569 l -1.966,3.634 c -0.688,1.473 -1.473,3.045 -2.21,4.667 -0.295,0.638 -0.638,1.473 -0.933,2.062 -0.048,0.05 -0.097,0.147 -0.147,0.197 0.147,-2.947 0.196,-5.944 0.246,-8.056 v -11.444 c 0,-1.276 -0.147,-1.916 -0.442,-2.603 -0.787,-0.835 -1.572,-0.884 -4.716,-0.884 0.05,2.799 0.097,6.336 0.097,10.216 v 20.63 c -0.245,0.295 -0.588,0.786 -0.588,0.883 0,0 0,0.197 0.099,0.492 0.736,0.441 2.898,0.589 3.732,0.589 0.492,0 1.179,-0.196 1.915,-0.638 1.032,-2.064 2.654,-4.765 4.422,-7.811 0.491,-0.834 0.933,-1.67 1.376,-2.455 0.392,-0.736 0.834,-1.425 1.276,-2.162 z" /></g><g
           transform="translate(132.8105,56.382)"
           id="g36"><path
             id="path38"
             style="fill:#0b3385;fill-opacity:1;fill-rule:nonzero;stroke:none"
             d="m 0,0 c 0,-0.687 -0.295,-1.572 -0.836,-2.406 -0.293,-0.198 -0.589,-0.295 -0.932,-0.295 -0.394,0 -0.737,0.097 -1.032,0.245 -0.934,0.442 -2.26,0.786 -3.586,0.786 -2.553,0 -4.125,-1.227 -4.125,-3.635 v -0.638 c 0.197,-1.228 0.785,-2.21 1.669,-3.193 0.984,-1.081 2.506,-2.554 3.685,-3.635 0.05,-0.048 0.196,-0.147 0.196,-0.196 0.981,-0.885 1.964,-1.867 2.751,-2.701 2.062,-2.161 3.044,-4.323 3.044,-7.073 0,-5.452 -3.438,-9.086 -9.822,-9.086 -3.389,0 -5.699,0.884 -6.632,1.767 -0.539,0.491 -0.735,0.787 -0.735,1.228 0,0.786 0.638,2.309 1.325,3.39 1.62,-1.328 3.782,-2.26 5.893,-2.26 2.654,0 4.422,1.67 4.422,4.617 0,2.014 -0.787,3.487 -2.997,5.55 -0.539,0.639 -1.13,1.227 -1.768,1.867 -0.146,0.147 -0.392,0.344 -0.638,0.589 l -0.59,0.59 c -1.178,1.178 -2.258,2.161 -3.045,3.143 -1.671,2.112 -2.26,3.929 -2.26,5.746 0,3.88 2.603,7.761 9.185,7.761 C -2.701,2.161 -0.491,0.786 0,0" /></g><g
           transform="translate(142.4336,29.1711)"
           id="g40"><path
             id="path42"
             style="fill:#0b3385;fill-opacity:1;fill-rule:nonzero;stroke:none"
             d="m 0,0 c 0.934,-0.099 2.259,-0.099 3.585,-0.099 1.966,0 4.912,0 6.926,0.05 C 10.217,-2.8 9.726,-3.586 8.449,-3.93 7.22,-3.979 5.354,-4.027 2.652,-4.027 c -2.945,0 -5.599,0.097 -7.514,0.295 -0.147,0.687 -0.295,1.473 -0.392,2.111 v 23.282 c 0,2.112 0,4.224 -0.1,6.188 0.296,0.099 1.376,0.492 1.376,0.492 0.295,0.097 0.588,0.294 1.572,0.344 H 9.823 C 9.676,26.032 9.381,25.345 8.497,25.001 7.074,24.755 5.648,24.755 3.831,24.755 H 0 V 15.324 H 9.038 C 8.646,11.837 8.154,11.396 6.632,11.396 H 0 Z" /></g><g
           transform="translate(155.8872,56.2346)"
           id="g44"><path
             id="path46"
             style="fill:#0b3385;fill-opacity:1;fill-rule:nonzero;stroke:none"
             d="m 0,0 v 0.639 c 0,0.246 -0.049,0.589 -0.049,0.835 0.344,0.245 0.983,0.441 1.817,0.491 1.523,0.098 3.293,0.147 5.06,0.147 6.777,0 10.854,-2.848 10.854,-10.216 0,-7.123 -4.911,-9.43 -8.349,-9.873 -1.327,0 -3.095,0.099 -3.095,2.309 0,0.344 0.59,0.688 1.179,0.688 2.113,0 4.666,1.719 4.666,7.073 0,4.518 -2.21,6.091 -4.912,6.091 -0.785,0 -1.425,0 -1.915,-0.05 v -21.219 l 0.048,-5.403 c 0,-0.834 -0.147,-1.424 -0.589,-2.014 -0.588,-0.589 -1.424,-0.589 -3.389,-0.589 H 0 c 0.05,2.799 0.099,6.286 0.099,10.167 z" /></g><g
           transform="translate(188.0078,53.8772)"
           id="g48"><path
             id="path50"
             style="fill:#0b3385;fill-opacity:1;fill-rule:nonzero;stroke:none"
             d="m 0,0 v -21.71 c 0,-2.751 0.048,-4.715 0.098,-6.238 -0.785,-0.688 -1.621,-0.785 -4.716,-0.785 -0.392,0.687 -0.588,1.424 -0.588,2.308 V 0 h -5.748 c -0.735,0 -1.572,0.049 -2.456,0.197 -0.097,0.392 -0.097,0.49 -0.097,0.687 0,0.638 0.196,1.621 0.442,2.211 0.146,0.392 0.492,0.736 0.735,0.981 h 0.688 c 0.196,0 0.492,-0.049 0.738,-0.049 1.08,-0.048 2.405,-0.048 4.272,-0.048 H 8.693 C 8.693,2.849 8.545,1.915 8.349,1.129 8.152,0.393 7.219,0.099 6.926,0 Z" /></g><g
           transform="translate(197.6016,37.2941)"
           id="g52"><path
             id="path54"
             style="fill:#0379f9;fill-opacity:1;fill-rule:nonzero;stroke:none"
             d="m 0,0 c 1.425,-0.113 2.103,-0.701 2.193,-1.017 0,-0.295 -0.204,-0.837 -0.453,-1.153 -0.09,0.023 -0.339,0.068 -0.452,0.091 -0.248,0.045 -0.498,0.09 -0.745,0.181 -0.339,0.135 -0.678,0.203 -1.017,0.203 -0.793,0 -1.291,-0.43 -1.291,-1.04 0,-0.362 0.137,-0.678 0.611,-1.063 0.25,-0.181 0.589,-0.429 0.95,-0.678 0.43,-0.339 0.927,-0.678 1.311,-0.971 0.95,-0.792 1.402,-1.583 1.402,-2.532 0,-2.149 -1.762,-3.234 -3.956,-3.234 -1.469,0 -2.736,0.452 -3.007,1.085 0,0.34 0.181,0.859 0.452,1.221 h 0.226 c 0.204,0 0.43,-0.068 0.677,-0.203 v 0.022 c 0.476,-0.203 1.065,-0.361 1.606,-0.361 0.113,0 0.271,0.022 0.408,0.045 0.679,0.068 1.085,0.543 1.085,1.22 0,0.497 -0.227,0.928 -0.858,1.357 -0.092,0.067 -0.318,0.225 -0.272,0.181 -0.521,0.362 -1.108,0.836 -1.538,1.199 l -0.565,0.451 c -0.702,0.701 -1.04,1.401 -1.04,2.193 0,1.786 1.47,2.849 3.617,2.849 C -0.406,0.046 -0.159,0.022 0,0" /></g><g
           transform="translate(207.4639,32.2756)"
           id="g56"><path
             id="path58"
             style="fill:#0379f9;fill-opacity:1;fill-rule:nonzero;stroke:none"
             d="m 0,0 c 0,2.306 -0.724,3.232 -1.99,3.232 -0.656,0 -1.288,-0.383 -1.74,-0.767 v -6.354 c 0.315,-0.339 0.881,-0.61 1.422,-0.61 C -1.357,-4.499 0,-3.595 0,0 m -3.867,-10.264 c -0.181,-0.113 -0.699,-0.226 -1.265,-0.226 -0.271,0 -0.589,0.046 -0.905,0.113 -0.067,0.385 -0.067,1.131 -0.067,2.283 V 2.329 c 0,0.7 -0.09,1.221 -0.249,1.673 0.135,0.226 0.474,0.385 0.95,0.588 0.18,0.045 0.294,0.045 0.294,0.045 0.406,0 0.701,-0.226 0.836,-0.475 0.452,0.294 0.904,0.52 1.355,0.678 0.454,0.159 0.86,0.249 1.403,0.249 2.239,0 4.046,-1.401 4.046,-4.929 0,-2.826 -0.837,-4.566 -2.034,-5.516 -0.814,-0.678 -1.696,-0.859 -2.466,-0.859 -0.766,0 -1.331,0.135 -1.761,0.384 v -3.391 c 0,-0.383 0,-0.678 -0.046,-0.971 z" /></g><g
           transform="translate(213.707,34.6486)"
           id="g60"><path
             id="path62"
             style="fill:#0379f9;fill-opacity:1;fill-rule:nonzero;stroke:none"
             d="m 0,0 v -7.121 c 0,-0.361 -0.021,-0.632 -0.226,-0.927 -0.363,-0.271 -0.702,-0.293 -2.17,-0.293 0.022,1.198 0.045,2.736 0.045,4.476 l 0.022,3.775 c 0,0.724 -0.135,1.244 -0.293,1.695 0.181,0.182 0.474,0.363 0.971,0.566 0.136,0.046 0.226,0.046 0.317,0.046 0.476,0 0.678,-0.136 0.814,-0.452 0.429,0.293 0.905,0.497 1.334,0.655 0.385,0.158 0.88,0.248 1.311,0.181 C 2.781,2.532 3.188,2.307 3.255,1.968 3.255,1.629 3.165,0.995 2.849,0.544 2.689,0.498 2.689,0.498 2.487,0.498 2.237,0.498 2.012,0.521 1.831,0.544 1.673,0.589 1.605,0.589 1.538,0.589 0.928,0.589 0.431,0.431 0,0" /></g><g
           transform="translate(220.7432,27.7092)"
           id="g64"><path
             id="path66"
             style="fill:#0379f9;fill-opacity:1;fill-rule:nonzero;stroke:none"
             d="m 0,0 c -0.023,-0.316 -0.046,-0.859 -0.046,-0.973 -0.225,-0.315 -0.723,-0.61 -1.4,-0.632 -0.318,0 -0.657,0.135 -0.907,0.317 -0.427,0.293 -0.654,0.745 -0.654,1.197 v 11.53 c 0,1.085 -0.023,1.854 -0.045,2.509 0.272,0.634 1.084,0.701 2.238,0.701 0.134,-0.519 0.158,-1.04 0.158,-2.192 V 0.882 c 0,0 -0.068,-1.018 0.656,-0.882" /></g><g
           transform="translate(223.0283,28.9973)"
           id="g68"><path
             id="path70"
             style="fill:#0379f9;fill-opacity:1;fill-rule:nonzero;stroke:none"
             d="m 0,0 c 1.176,0 1.401,-0.452 1.38,-1.356 -0.024,-0.859 -0.318,-1.492 -1.538,-1.492 -1.041,0 -1.38,0.475 -1.38,1.447 C -1.538,-0.475 -1.062,0 0,0" /></g><g
           transform="translate(298.3555,144.7419)"
           id="g72"><path
             id="path74"
             style="fill:#0b3385;fill-opacity:1;fill-rule:nonzero;stroke:none"
             d="m 0,0 -1.58,-4.417 h -0.917 l -1.58,4.502 h -0.085 l 0.021,-1.899 v -3.03 h -0.98 v 5.867 h 1.642 l 1.452,-4.267 1.428,4.267 H 1.045 V -4.844 H 0.063 v 3.03 L 0.085,0 Z m -10.499,1.023 h 4.416 V 0.192 h -1.663 v -5.014 h -1.046 v 5.014 h -1.707 z" /></g><g
           transform="translate(281.6641,53.1154)"
           id="g76"><path
             id="path78"
             style="fill:#f55803;fill-opacity:1;fill-rule:nonzero;stroke:none"
             d="m 0,0 -51.749,-28.874 -0.035,24.493 51.75,28.875 z" /></g><g
           transform="translate(285.124,114.9064)"
           id="g80"><path
             id="path82"
             style="fill:#f67302;fill-opacity:1;fill-rule:nonzero;stroke:none"
             d="m 0,0 -51.748,-28.875 -0.035,24.496 51.748,28.875 z" /></g><g
           transform="translate(228.7705,64.1887)"
           id="g84"><path
             id="path86"
             style="fill:#0b3385;fill-opacity:1;fill-rule:nonzero;stroke:none"
             d="M 0,0 V 69.915 L -20.762,56.916 v -69.913 z" /></g><g
           transform="translate(260.0371,65.5959)"
           id="g88"><path
             id="path90"
             style="fill:#545e5f;fill-opacity:1;fill-rule:nonzero;stroke:none"
             d="M 0,0 -26.631,20.401 -5.068,32.503 21.502,12.112 Z" /></g><g
           transform="translate(218.3975,125.5349)"
           id="g92"><path
             id="path94"
             style="fill:#0379f9;fill-opacity:1;fill-rule:nonzero;stroke:none"
             d="M 0,0 C 3.642,0 7.133,-0.96 10.373,-2.716 V 8.568 L -3.907,-0.373 C -2.627,-0.127 -1.323,0 0,0" /></g><g
           transform="translate(218.3975,62.2609)"
           id="g96"><path
             id="path98"
             style="fill:#0379f9;fill-opacity:1;fill-rule:nonzero;stroke:none"
             d="M 0,0 C -3.646,0 -7.146,0.961 -10.389,2.724 V -11.069 L 10.373,1.928 V 2.715 C 7.133,0.96 3.642,0 0,0" /></g><g
           transform="translate(271.5381,121.0866)"
           id="g100"><path
             id="path102"
             style="fill:#f9a908;fill-opacity:1;fill-rule:nonzero;stroke:none"
             d="M 0,0 C 4.729,0 9.289,-0.384 13.578,-1.099 L 13.551,18.315 -30.222,-6.11 C -22.165,-2.308 -11.586,0 0,0" /></g><g
           transform="translate(235.9883,112.0056)"
           id="g104"><path
             id="path106"
             style="fill:#f9a908;fill-opacity:1;fill-rule:nonzero;stroke:none"
             d="M 0,0 -2.647,-1.479 V -1.937 C -1.821,-1.268 -0.938,-0.622 0,0" /></g><g
           transform="translate(229.8799,48.5969)"
           id="g108"><path
             id="path110"
             style="fill:#f9a908;fill-opacity:1;fill-rule:nonzero;stroke:none"
             d="m 0,0 0.035,-24.355 23.868,13.316 C 13.626,-9.659 4.979,-5.556 0,0" /></g></g></g></g></svg>